<?xml version="1.0" encoding="utf-8"?>
<!-- Generator: Adobe Illustrator 24.2.1, SVG Export Plug-In . SVG Version: 6.00 Build 0)  -->
<svg version="1.1" id="_x2014_ÎÓÈ_x5F_1" xmlns="http://www.w3.org/2000/svg" xmlns:xlink="http://www.w3.org/1999/xlink"
	 x="0px" y="0px" viewBox="0 0 373.69 197" style="enable-background:new 0 0 373.69 197;" xml:space="preserve">
<style type="text/css">
	.st0{display:none;fill:#31363C;}
	.st1{display:none;}
	.st2{display:inline;}
	.st3{opacity:0;fill:#31363C;}
	.st4{opacity:0.0625;fill:url(#SVGID_1_);}
	.st5{opacity:0.125;fill:url(#SVGID_2_);}
	.st6{opacity:0.1875;fill:url(#SVGID_3_);}
	.st7{opacity:0.25;fill:url(#SVGID_4_);}
	.st8{opacity:0.3125;fill:url(#SVGID_5_);}
	.st9{opacity:0.375;fill:url(#SVGID_6_);}
	.st10{opacity:0.4375;fill:url(#SVGID_7_);}
	.st11{opacity:0.5;fill:url(#SVGID_8_);}
	.st12{opacity:0.5625;fill:url(#SVGID_9_);}
	.st13{opacity:0.625;fill:url(#SVGID_10_);}
	.st14{opacity:0.6875;fill:url(#SVGID_11_);}
	.st15{opacity:0.75;fill:url(#SVGID_12_);}
	.st16{opacity:0.8125;fill:url(#SVGID_13_);}
	.st17{opacity:0.875;fill:url(#SVGID_14_);}
	.st18{opacity:0.9375;fill:url(#SVGID_15_);}
	.st19{fill:url(#SVGID_16_);}
	.st20{display:inline;fill:#31363C;}
	.st21{fill:#FFFEFF;}
	.st22{fill:url(#SVGID_17_);}
	.st23{fill:url(#SVGID_18_);}
	.st24{fill:url(#SVGID_19_);}
	.st25{fill:url(#SVGID_20_);}
	.st26{opacity:0.2;enable-background:new    ;}
	.st27{opacity:0.12;enable-background:new    ;}
	.st28{opacity:0.25;fill:#FFFFFF;enable-background:new    ;}
</style>
<rect x="-327.33" class="st0" width="701.02" height="197"/>
<g>
	<g>
		<g class="st1">
			<g class="st2">
				<path class="st3" d="M73.18,159.99c-27.57,0-50-22.43-50-50V82.86c0-27.57,22.43-50,50-50h220.58c27.57,0,50,22.43,50,50v27.14
					c0,27.57-22.43,50-50,50H73.18z"/>
				<linearGradient id="SVGID_1_" gradientUnits="userSpaceOnUse" x1="169.353" y1="16.3911" x2="197.5774" y2="176.4598">
					<stop  offset="0.2" style="stop-color:#31373D"/>
					<stop  offset="0.9" style="stop-color:#30353B"/>
				</linearGradient>
				<path class="st4" d="M73.18,158.74c-26.88,0-48.75-21.87-48.75-48.75V82.86c0-26.88,21.87-48.75,48.75-48.75h220.58
					c26.88,0,48.75,21.87,48.75,48.75v27.14c0,26.88-21.87,48.75-48.75,48.75H73.18z"/>
				<linearGradient id="SVGID_2_" gradientUnits="userSpaceOnUse" x1="169.57" y1="17.6221" x2="197.3603" y2="175.2287">
					<stop  offset="0.2" style="stop-color:#32373D"/>
					<stop  offset="0.9" style="stop-color:#2F343A"/>
				</linearGradient>
				<path class="st5" d="M73.18,157.49c-26.2,0-47.5-21.3-47.5-47.5V82.86c0-26.2,21.3-47.5,47.5-47.5h220.58
					c26.2,0,47.5,21.3,47.5,47.5v27.14c0,26.2-21.3,47.5-47.5,47.5H73.18z"/>
				<linearGradient id="SVGID_3_" gradientUnits="userSpaceOnUse" x1="169.7871" y1="18.8532" x2="197.1433" y2="173.9977">
					<stop  offset="0.2" style="stop-color:#32383E"/>
					<stop  offset="0.9" style="stop-color:#2D3238"/>
				</linearGradient>
				<path class="st6" d="M73.18,156.24c-25.51,0-46.25-20.74-46.25-46.25V82.86c0-25.51,20.74-46.25,46.25-46.25h220.58
					c25.51,0,46.25,20.74,46.25,46.25v27.14c0,25.51-20.74,46.25-46.25,46.25H73.18z"/>
				<linearGradient id="SVGID_4_" gradientUnits="userSpaceOnUse" x1="170.0042" y1="20.0842" x2="196.9262" y2="172.7667">
					<stop  offset="0.2" style="stop-color:#33383E"/>
					<stop  offset="0.9" style="stop-color:#2C3137"/>
				</linearGradient>
				<path class="st7" d="M73.18,154.99c-24.82,0-45-20.18-45-45V82.86c0-24.82,20.18-45,45-45h220.58c24.82,0,45,20.18,45,45v27.14
					c0,24.82-20.18,45-45,45H73.18z"/>
				<linearGradient id="SVGID_5_" gradientUnits="userSpaceOnUse" x1="170.2212" y1="21.3152" x2="196.7091" y2="171.5357">
					<stop  offset="0.2" style="stop-color:#33393F"/>
					<stop  offset="0.9" style="stop-color:#2B3036"/>
				</linearGradient>
				<path class="st8" d="M73.18,153.74c-24.13,0-43.75-19.62-43.75-43.75V82.86c0-24.13,19.62-43.75,43.75-43.75h220.58
					c24.13,0,43.75,19.62,43.75,43.75v27.14c0,24.13-19.62,43.75-43.75,43.75H73.18z"/>
				<linearGradient id="SVGID_6_" gradientUnits="userSpaceOnUse" x1="170.4383" y1="22.5462" x2="196.4921" y2="170.3046">
					<stop  offset="0.2" style="stop-color:#34393F"/>
					<stop  offset="0.9" style="stop-color:#2A2F35"/>
				</linearGradient>
				<path class="st9" d="M73.18,152.49c-23.44,0-42.5-19.06-42.5-42.5V82.86c0-23.44,19.06-42.5,42.5-42.5h220.58
					c23.44,0,42.5,19.06,42.5,42.5v27.14c0,23.44-19.06,42.5-42.5,42.5H73.18z"/>
				<linearGradient id="SVGID_7_" gradientUnits="userSpaceOnUse" x1="170.6553" y1="23.7773" x2="196.275" y2="169.0736">
					<stop  offset="0.2" style="stop-color:#343A40"/>
					<stop  offset="0.9" style="stop-color:#292E33"/>
				</linearGradient>
				<path class="st10" d="M73.18,151.24c-22.76,0-41.25-18.49-41.25-41.25V82.86c0-22.76,18.49-41.25,41.25-41.25h220.58
					c22.76,0,41.25,18.49,41.25,41.25v27.14c0,22.76-18.49,41.25-41.25,41.25H73.18z"/>
				<linearGradient id="SVGID_8_" gradientUnits="userSpaceOnUse" x1="170.8724" y1="25.0083" x2="196.058" y2="167.8426">
					<stop  offset="0.2" style="stop-color:#353B40"/>
					<stop  offset="0.9" style="stop-color:#272D32"/>
				</linearGradient>
				<path class="st11" d="M73.18,149.99c-22.07,0-40-17.93-40-40V82.86c0-22.07,17.93-40,40-40h220.58c22.07,0,40,17.93,40,40v27.14
					c0,22.07-17.93,40-40,40H73.18z"/>
				<linearGradient id="SVGID_9_" gradientUnits="userSpaceOnUse" x1="171.0895" y1="26.2393" x2="195.8409" y2="166.6115">
					<stop  offset="0.2" style="stop-color:#353B41"/>
					<stop  offset="0.9" style="stop-color:#262B31"/>
				</linearGradient>
				<path class="st12" d="M73.18,148.74c-21.38,0-38.75-17.37-38.75-38.75V82.86c0-21.38,17.37-38.75,38.75-38.75h220.58
					c21.38,0,38.75,17.37,38.75,38.75v27.14c0,21.38-17.37,38.75-38.75,38.75H73.18z"/>
				<linearGradient id="SVGID_10_" gradientUnits="userSpaceOnUse" x1="171.3065" y1="27.4703" x2="195.6238" y2="165.3805">
					<stop  offset="0.2" style="stop-color:#363C41"/>
					<stop  offset="0.9" style="stop-color:#252A30"/>
				</linearGradient>
				<path class="st13" d="M73.18,147.49c-20.69,0-37.5-16.81-37.5-37.5V82.86c0-20.69,16.81-37.5,37.5-37.5h220.58
					c20.69,0,37.5,16.81,37.5,37.5v27.14c0,20.69-16.81,37.5-37.5,37.5H73.18z"/>
				<linearGradient id="SVGID_11_" gradientUnits="userSpaceOnUse" x1="171.5236" y1="28.7014" x2="195.4068" y2="164.1495">
					<stop  offset="0.2" style="stop-color:#363C42"/>
					<stop  offset="0.9" style="stop-color:#24292E"/>
				</linearGradient>
				<path class="st14" d="M73.18,146.24c-20.01,0-36.25-16.24-36.25-36.25V82.86c0-20.01,16.24-36.25,36.25-36.25h220.58
					c20.01,0,36.25,16.24,36.25,36.25v27.14c0,20.01-16.24,36.25-36.25,36.25H73.18z"/>
				<linearGradient id="SVGID_12_" gradientUnits="userSpaceOnUse" x1="171.7407" y1="29.9324" x2="195.1897" y2="162.9184">
					<stop  offset="0.2" style="stop-color:#373D42"/>
					<stop  offset="0.9" style="stop-color:#23282D"/>
				</linearGradient>
				<path class="st15" d="M73.18,144.99c-19.32,0-35-15.68-35-35V82.86c0-19.32,15.68-35,35-35h220.58c19.32,0,35,15.68,35,35v27.14
					c0,19.32-15.68,35-35,35H73.18z"/>
				<linearGradient id="SVGID_13_" gradientUnits="userSpaceOnUse" x1="171.9577" y1="31.1634" x2="194.9726" y2="161.6874">
					<stop  offset="0.2" style="stop-color:#373D43"/>
					<stop  offset="0.9" style="stop-color:#22272C"/>
				</linearGradient>
				<path class="st16" d="M73.18,143.74c-18.63,0-33.75-15.12-33.75-33.75V82.86c0-18.63,15.12-33.75,33.75-33.75h220.58
					c18.63,0,33.75,15.12,33.75,33.75v27.14c0,18.63-15.12,33.75-33.75,33.75H73.18z"/>
				<linearGradient id="SVGID_14_" gradientUnits="userSpaceOnUse" x1="172.1748" y1="32.3945" x2="194.7556" y2="160.4564">
					<stop  offset="0.2" style="stop-color:#383E43"/>
					<stop  offset="0.9" style="stop-color:#20252B"/>
				</linearGradient>
				<path class="st17" d="M73.18,142.49c-17.94,0-32.5-14.56-32.5-32.5V82.86c0-17.94,14.56-32.5,32.5-32.5h220.58
					c17.94,0,32.5,14.56,32.5,32.5v27.14c0,17.94-14.56,32.5-32.5,32.5H73.18z"/>
				<linearGradient id="SVGID_15_" gradientUnits="userSpaceOnUse" x1="172.3919" y1="33.6255" x2="194.5385" y2="159.2253">
					<stop  offset="0.2" style="stop-color:#383E44"/>
					<stop  offset="0.9" style="stop-color:#1F2429"/>
				</linearGradient>
				<path class="st18" d="M73.18,141.24c-17.26,0-31.25-13.99-31.25-31.25V82.86c0-17.26,13.99-31.25,31.25-31.25h220.58
					c17.26,0,31.25,13.99,31.25,31.25v27.14c0,17.26-13.99,31.25-31.25,31.25H73.18z"/>
				<linearGradient id="SVGID_16_" gradientUnits="userSpaceOnUse" x1="172.6089" y1="34.8565" x2="194.3214" y2="157.9943">
					<stop  offset="0.2" style="stop-color:#393F44"/>
					<stop  offset="0.9" style="stop-color:#1E2328"/>
				</linearGradient>
				<path class="st19" d="M293.75,139.99H73.18c-16.57,0-30-13.43-30-30V82.86c0-16.57,13.43-30,30-30h220.57
					c16.57,0,30,13.43,30,30v27.14C323.75,126.56,310.32,139.99,293.75,139.99z"/>
			</g>
			<path class="st20" d="M293.75,139.99H73.18c-16.57,0-30-13.43-30-30V82.86c0-16.57,13.43-30,30-30h220.57c16.57,0,30,13.43,30,30
				v27.14C323.75,126.56,310.32,139.99,293.75,139.99z"/>
		</g>
		<g>
			<g>
				<path class="st21" d="M91.73,82.59c-2.6-1.4-5.7-1.59-8.41-0.44c-4.04,1.71-8.96,5.66-8.96,14.74c0,10.83,5.01,18.62,9.15,22.11
					c1.77,1.5,4.17,2.03,6.41,1.43l5-1.34c1.24-0.33,2.55-0.32,3.78,0.03l4.28,1.22c2.14,0.61,4.45,0.19,6.23-1.16
					c2.38-1.81,5.43-5.31,7.64-12.06l0,0c-9.07-3.57-9.93-16.07-1.43-20.84l0.17-0.1c0,0-2.34-3.24-7.01-4.68
					c-2.36-0.73-4.92-0.48-7.14,0.61l-2.2,1.08c-2.09,1.03-4.55,0.98-6.6-0.12L91.73,82.59z"/>
				<path class="st21" d="M95.6,80.27c0,0.25,0.01,0.5,0.03,0.75c6.07-0.69,10.79-5.84,10.79-12.1c0-0.25-0.01-0.5-0.03-0.75
					C100.32,68.87,95.6,74.02,95.6,80.27z"/>
			</g>
			<g>
				<path class="st21" d="M149.12,80.4h2.89c0.58,0,1.11,0.07,1.61,0.2c0.5,0.13,0.93,0.35,1.3,0.67c0.37,0.31,0.66,0.72,0.86,1.24
					c0.21,0.51,0.31,1.15,0.31,1.91c0,0.76-0.11,1.43-0.32,2c-0.21,0.57-0.5,1.05-0.88,1.43c-0.37,0.38-0.81,0.67-1.33,0.86
					c-0.51,0.19-1.07,0.29-1.68,0.29h-2.77V80.4z M150.26,81.42v6.55h1.63c0.44,0,0.84-0.07,1.21-0.2c0.36-0.14,0.68-0.35,0.94-0.63
					c0.26-0.28,0.47-0.65,0.61-1.09c0.14-0.44,0.22-0.96,0.22-1.57c0-0.6-0.07-1.1-0.22-1.49c-0.14-0.4-0.34-0.71-0.59-0.94
					c-0.25-0.23-0.55-0.39-0.91-0.49c-0.35-0.09-0.73-0.14-1.14-0.14H150.26z"/>
				<path class="st21" d="M161.36,89.12c-0.58,0-1.12-0.1-1.62-0.29c-0.5-0.2-0.94-0.48-1.31-0.86c-0.37-0.38-0.66-0.84-0.87-1.39
					c-0.21-0.55-0.32-1.19-0.32-1.91c0-0.72,0.11-1.35,0.32-1.9c0.21-0.55,0.5-1,0.87-1.37c0.37-0.36,0.8-0.64,1.31-0.83
					c0.5-0.19,1.04-0.28,1.62-0.28c0.59,0,1.14,0.09,1.64,0.28c0.5,0.19,0.94,0.47,1.3,0.83c0.36,0.37,0.65,0.83,0.86,1.37
					c0.21,0.55,0.31,1.18,0.31,1.9c0,0.71-0.1,1.34-0.31,1.9c-0.21,0.55-0.49,1.02-0.86,1.39c-0.36,0.38-0.8,0.66-1.3,0.86
					C162.5,89.02,161.95,89.12,161.36,89.12z M161.36,88.1c0.42,0,0.8-0.06,1.15-0.19c0.35-0.12,0.66-0.32,0.92-0.59
					c0.26-0.27,0.46-0.62,0.61-1.05c0.15-0.43,0.22-0.96,0.22-1.57s-0.07-1.14-0.22-1.57c-0.15-0.43-0.35-0.78-0.61-1.05
					c-0.26-0.27-0.57-0.46-0.92-0.59c-0.35-0.12-0.74-0.19-1.15-0.19c-0.41,0-0.79,0.06-1.15,0.19c-0.36,0.12-0.66,0.32-0.92,0.59
					c-0.26,0.27-0.46,0.62-0.61,1.05c-0.15,0.43-0.22,0.96-0.22,1.57s0.07,1.14,0.22,1.57c0.15,0.43,0.35,0.78,0.61,1.05
					c0.26,0.27,0.57,0.46,0.92,0.59C160.57,88.03,160.95,88.1,161.36,88.1z"/>
				<path class="st21" d="M166.11,80.4h1.18l1.62,7.56l1.98-7.56h1.27l1.92,7.42l1.62-7.42h1.08L174.9,89h-1.66l-1.76-7.07
					l-1.8,7.07h-1.66L166.11,80.4z"/>
				<path class="st21" d="M179.23,81.78V89h-1.07V80.4h1.52l4.32,7.21V80.4h1.08V89h-1.54L179.23,81.78z"/>
				<path class="st21" d="M187.22,80.4h1.14v7.57h3.92V89h-5.06V80.4z"/>
				<path class="st21" d="M197.22,89.12c-0.58,0-1.12-0.1-1.62-0.29c-0.5-0.2-0.94-0.48-1.31-0.86c-0.37-0.38-0.66-0.84-0.87-1.39
					c-0.21-0.55-0.32-1.19-0.32-1.91c0-0.72,0.11-1.35,0.32-1.9c0.21-0.55,0.5-1,0.87-1.37c0.37-0.36,0.8-0.64,1.31-0.83
					c0.5-0.19,1.04-0.28,1.62-0.28c0.59,0,1.14,0.09,1.64,0.28c0.5,0.19,0.94,0.47,1.3,0.83c0.36,0.37,0.65,0.83,0.86,1.37
					c0.21,0.55,0.31,1.18,0.31,1.9c0,0.71-0.1,1.34-0.31,1.9c-0.21,0.55-0.49,1.02-0.86,1.39c-0.36,0.38-0.8,0.66-1.3,0.86
					C198.36,89.02,197.81,89.12,197.22,89.12z M197.22,88.1c0.42,0,0.8-0.06,1.15-0.19c0.35-0.12,0.66-0.32,0.92-0.59
					c0.26-0.27,0.46-0.62,0.61-1.05c0.15-0.43,0.22-0.96,0.22-1.57s-0.07-1.14-0.22-1.57c-0.15-0.43-0.35-0.78-0.61-1.05
					c-0.26-0.27-0.57-0.46-0.92-0.59c-0.35-0.12-0.74-0.19-1.15-0.19c-0.41,0-0.79,0.06-1.15,0.19c-0.36,0.12-0.66,0.32-0.92,0.59
					c-0.26,0.27-0.46,0.62-0.61,1.05c-0.15,0.43-0.22,0.96-0.22,1.57s0.07,1.14,0.22,1.57c0.15,0.43,0.35,0.78,0.61,1.05
					c0.26,0.27,0.57,0.46,0.92,0.59C196.43,88.03,196.81,88.1,197.22,88.1z"/>
				<path class="st21" d="M207.15,86.54h-3.44L202.89,89h-1.06l2.82-8.59h1.68l2.83,8.59h-1.2L207.15,86.54z M205.42,81.3
					l-1.39,4.24h2.8L205.42,81.3z"/>
				<path class="st21" d="M210.54,80.4h2.89c0.58,0,1.11,0.07,1.61,0.2c0.5,0.13,0.93,0.35,1.3,0.67c0.37,0.31,0.66,0.72,0.86,1.24
					c0.21,0.51,0.31,1.15,0.31,1.91c0,0.76-0.11,1.43-0.32,2c-0.21,0.57-0.5,1.05-0.88,1.43c-0.37,0.38-0.81,0.67-1.33,0.86
					c-0.51,0.19-1.07,0.29-1.68,0.29h-2.77V80.4z M211.68,81.42v6.55h1.63c0.44,0,0.84-0.07,1.21-0.2c0.36-0.14,0.68-0.35,0.94-0.63
					c0.26-0.28,0.47-0.65,0.61-1.09c0.14-0.44,0.22-0.96,0.22-1.57c0-0.6-0.07-1.1-0.22-1.49c-0.14-0.4-0.34-0.71-0.59-0.94
					c-0.25-0.23-0.55-0.39-0.91-0.49c-0.35-0.09-0.73-0.14-1.14-0.14H211.68z"/>
				<path class="st21" d="M225.13,89.12c-0.58,0-1.12-0.1-1.62-0.29c-0.5-0.2-0.94-0.48-1.31-0.86c-0.37-0.38-0.66-0.84-0.87-1.39
					c-0.21-0.55-0.32-1.19-0.32-1.91c0-0.72,0.11-1.35,0.32-1.9c0.21-0.55,0.5-1,0.87-1.37c0.37-0.36,0.8-0.64,1.31-0.83
					c0.5-0.19,1.04-0.28,1.62-0.28c0.59,0,1.14,0.09,1.64,0.28c0.5,0.19,0.94,0.47,1.3,0.83c0.36,0.37,0.65,0.83,0.86,1.37
					c0.21,0.55,0.31,1.18,0.31,1.9c0,0.71-0.1,1.34-0.31,1.9c-0.21,0.55-0.49,1.02-0.86,1.39c-0.36,0.38-0.8,0.66-1.3,0.86
					C226.27,89.02,225.72,89.12,225.13,89.12z M225.13,88.1c0.42,0,0.8-0.06,1.15-0.19c0.35-0.12,0.66-0.32,0.92-0.59
					c0.26-0.27,0.46-0.62,0.61-1.05c0.15-0.43,0.22-0.96,0.22-1.57s-0.07-1.14-0.22-1.57c-0.15-0.43-0.35-0.78-0.61-1.05
					c-0.26-0.27-0.57-0.46-0.92-0.59c-0.35-0.12-0.74-0.19-1.15-0.19c-0.41,0-0.79,0.06-1.15,0.19c-0.36,0.12-0.66,0.32-0.92,0.59
					c-0.26,0.27-0.46,0.62-0.61,1.05c-0.15,0.43-0.22,0.96-0.22,1.57s0.07,1.14,0.22,1.57c0.15,0.43,0.35,0.78,0.61,1.05
					c0.26,0.27,0.57,0.46,0.92,0.59C224.34,88.03,224.72,88.1,225.13,88.1z"/>
				<path class="st21" d="M231.94,81.78V89h-1.07V80.4h1.52l4.32,7.21V80.4h1.08V89h-1.54L231.94,81.78z"/>
				<path class="st21" d="M245.31,81.42V89h-1.15v-7.57h-2.52V80.4h6.2v1.02H245.31z"/>
				<path class="st21" d="M254.89,85.24h-4.42V89h-1.14V80.4h1.14v3.82h4.42V80.4h1.13V89h-1.13V85.24z"/>
				<path class="st21" d="M258.15,80.4h4.96v1.02h-3.82v2.6h3.31v1.02h-3.31v2.93h3.88V89h-5.02V80.4z"/>
				<path class="st21" d="M160.69,108.46h-7.75L151.1,114h-2.38l6.34-19.33h3.78l6.37,19.33h-2.7L160.69,108.46z M156.8,96.69
					l-3.13,9.53h6.29L156.8,96.69z"/>
				<path class="st21" d="M175.03,114.27c-1.08,0-2.01-0.25-2.79-0.76c-0.78-0.5-1.41-1.2-1.88-2.08v7.34h-2.38V99.98h2.11
					l0.22,2.75c0.47-0.92,1.1-1.65,1.89-2.2c0.79-0.55,1.77-0.82,2.94-0.82c0.81,0,1.59,0.15,2.34,0.45c0.75,0.3,1.4,0.75,1.97,1.35
					c0.57,0.6,1.02,1.36,1.35,2.27c0.33,0.91,0.5,1.98,0.5,3.2c0,1.24-0.17,2.32-0.51,3.23c-0.34,0.91-0.8,1.66-1.38,2.27
					c-0.58,0.6-1.24,1.05-2,1.35C176.65,114.12,175.85,114.27,175.03,114.27z M174.67,112.16c1.24,0,2.25-0.43,3.01-1.29
					c0.77-0.86,1.15-2.15,1.15-3.88c0-1.7-0.38-2.98-1.15-3.86c-0.76-0.88-1.77-1.31-3.01-1.31c-0.61,0-1.18,0.11-1.71,0.32
					c-0.53,0.22-0.99,0.54-1.38,0.96c-0.39,0.42-0.69,0.96-0.92,1.61c-0.23,0.65-0.34,1.41-0.34,2.27c0,0.87,0.11,1.62,0.34,2.27
					c0.22,0.65,0.53,1.19,0.92,1.62c0.39,0.43,0.85,0.75,1.38,0.96C173.49,112.06,174.06,112.16,174.67,112.16z"/>
				<path class="st21" d="M191.55,114.27c-1.08,0-2.01-0.25-2.79-0.76c-0.78-0.5-1.41-1.2-1.88-2.08v7.34h-2.38V99.98h2.11
					l0.22,2.75c0.47-0.92,1.1-1.65,1.89-2.2c0.79-0.55,1.77-0.82,2.94-0.82c0.81,0,1.59,0.15,2.34,0.45c0.75,0.3,1.4,0.75,1.97,1.35
					c0.57,0.6,1.02,1.36,1.35,2.27c0.33,0.91,0.5,1.98,0.5,3.2c0,1.24-0.17,2.32-0.51,3.23c-0.34,0.91-0.8,1.66-1.38,2.27
					c-0.58,0.6-1.24,1.05-2,1.35C193.17,114.12,192.38,114.27,191.55,114.27z M191.2,112.16c1.24,0,2.25-0.43,3.01-1.29
					c0.77-0.86,1.15-2.15,1.15-3.88c0-1.7-0.38-2.98-1.15-3.86c-0.76-0.88-1.77-1.31-3.01-1.31c-0.61,0-1.18,0.11-1.71,0.32
					c-0.53,0.22-0.99,0.54-1.38,0.96c-0.39,0.42-0.69,0.96-0.92,1.61c-0.23,0.65-0.34,1.41-0.34,2.27c0,0.87,0.11,1.62,0.34,2.27
					c0.22,0.65,0.53,1.19,0.92,1.62c0.39,0.43,0.85,0.75,1.38,0.96C190.01,112.06,190.59,112.16,191.2,112.16z"/>
				<path class="st21" d="M203.4,94.66V114h-2.38V94.66H203.4z"/>
				<path class="st21" d="M218.74,112.82c-0.2,0.14-0.45,0.29-0.74,0.46c-0.3,0.16-0.65,0.32-1.07,0.47
					c-0.41,0.15-0.89,0.28-1.42,0.38c-0.53,0.1-1.12,0.15-1.77,0.15c-2.36,0-4.15-0.64-5.37-1.92c-1.22-1.28-1.84-3.07-1.84-5.37
					c0-1.13,0.17-2.15,0.5-3.05c0.33-0.9,0.8-1.66,1.39-2.28c0.59-0.62,1.3-1.1,2.12-1.43c0.82-0.33,1.71-0.5,2.66-0.5
					c0.99,0,1.88,0.17,2.67,0.51c0.79,0.34,1.44,0.85,1.96,1.52c0.51,0.67,0.86,1.5,1.05,2.48c0.19,0.98,0.18,2.13-0.01,3.43h-9.88
					c0.09,1.51,0.55,2.64,1.38,3.39c0.83,0.75,2,1.12,3.51,1.12c0.99,0,1.83-0.16,2.51-0.47c0.68-0.31,1.26-0.63,1.73-0.96
					L218.74,112.82z M213.15,101.82c-1.04,0-1.94,0.31-2.67,0.94c-0.74,0.63-1.21,1.58-1.4,2.86h7.53c0.04-0.65-0.03-1.21-0.19-1.69
					c-0.16-0.48-0.4-0.87-0.7-1.19c-0.31-0.31-0.68-0.55-1.12-0.7C214.15,101.9,213.67,101.82,213.15,101.82z"/>
				<path class="st21" d="M233.05,114.27c-0.74,0-1.44-0.06-2.11-0.18c-0.67-0.12-1.28-0.26-1.84-0.43
					c-0.56-0.17-1.05-0.37-1.49-0.59c-0.43-0.22-0.78-0.45-1.05-0.66l0.41-2.43c0.27,0.22,0.62,0.44,1.04,0.67
					c0.42,0.23,0.9,0.45,1.42,0.65c0.52,0.2,1.09,0.36,1.7,0.49c0.61,0.13,1.25,0.19,1.92,0.19c1.4,0,2.52-0.27,3.36-0.8
					c0.84-0.53,1.25-1.34,1.25-2.42c0-0.54-0.1-0.99-0.3-1.34c-0.2-0.35-0.49-0.65-0.86-0.89c-0.38-0.24-0.85-0.45-1.42-0.62
					c-0.57-0.17-1.23-0.36-1.98-0.55c-0.76-0.2-1.51-0.42-2.27-0.67c-0.76-0.25-1.44-0.58-2.04-1c-0.6-0.41-1.09-0.94-1.46-1.57
					c-0.37-0.63-0.55-1.43-0.55-2.4c0-1.66,0.58-2.96,1.73-3.9c1.15-0.94,2.9-1.42,5.24-1.42c0.74,0,1.39,0.04,1.97,0.12
					c0.58,0.08,1.08,0.18,1.51,0.3c0.43,0.12,0.81,0.25,1.13,0.39c0.32,0.14,0.6,0.28,0.84,0.4l-0.32,2.46
					c-0.63-0.41-1.38-0.75-2.24-1c-0.86-0.25-1.83-0.38-2.89-0.38c-0.83,0-1.53,0.07-2.09,0.2c-0.57,0.13-1.03,0.33-1.38,0.58
					c-0.35,0.25-0.6,0.56-0.76,0.92c-0.15,0.36-0.23,0.77-0.23,1.21c0,0.54,0.12,0.99,0.37,1.35c0.24,0.36,0.57,0.66,0.97,0.9
					c0.41,0.24,0.87,0.45,1.39,0.61c0.52,0.16,1.07,0.31,1.65,0.43c0.76,0.2,1.53,0.41,2.32,0.63c0.79,0.23,1.5,0.54,2.13,0.96
					c0.63,0.41,1.15,0.95,1.55,1.61c0.41,0.66,0.61,1.51,0.61,2.55c0,1.03-0.2,1.89-0.61,2.61c-0.41,0.71-0.94,1.29-1.61,1.74
					c-0.67,0.45-1.44,0.77-2.31,0.97C234.89,114.17,233.98,114.27,233.05,114.27z"/>
				<path class="st21" d="M249.52,114.08c-0.54,0.12-1.07,0.19-1.59,0.19c-0.68,0-1.27-0.1-1.75-0.3c-0.49-0.2-0.88-0.46-1.19-0.8
					c-0.31-0.33-0.53-0.71-0.67-1.13c-0.14-0.42-0.22-0.86-0.22-1.31v-8.72h-1.67v-2.03h1.67v-2.94h2.4v2.94h4.05v2.03h-4.05v8.45
					c0,0.6,0.15,1.03,0.45,1.3c0.3,0.27,0.73,0.41,1.31,0.41c0.36,0,0.72-0.05,1.09-0.15c0.37-0.1,0.71-0.24,1.01-0.42l0.41,2.03
					C250.47,113.8,250.06,113.95,249.52,114.08z"/>
				<path class="st21" d="M259.45,114.27c-0.95,0-1.85-0.16-2.67-0.49c-0.83-0.32-1.54-0.8-2.15-1.42c-0.6-0.62-1.08-1.38-1.42-2.28
					c-0.34-0.9-0.51-1.93-0.51-3.1c0-1.15,0.17-2.18,0.51-3.09c0.34-0.91,0.81-1.67,1.42-2.28c0.6-0.61,1.32-1.08,2.15-1.4
					c0.83-0.32,1.72-0.49,2.67-0.49c0.97,0,1.87,0.16,2.7,0.49c0.83,0.32,1.54,0.79,2.15,1.4c0.6,0.61,1.08,1.37,1.43,2.28
					c0.35,0.91,0.53,1.94,0.53,3.09c0,1.17-0.17,2.21-0.53,3.1c-0.35,0.9-0.83,1.66-1.43,2.28c-0.6,0.62-1.32,1.09-2.15,1.42
					C261.33,114.1,260.43,114.27,259.45,114.27z M259.45,112.16c0.63,0,1.21-0.1,1.75-0.31s1-0.52,1.39-0.95
					c0.39-0.42,0.69-0.96,0.92-1.61c0.22-0.65,0.34-1.42,0.34-2.3s-0.11-1.65-0.34-2.3c-0.23-0.65-0.53-1.19-0.92-1.61
					c-0.39-0.42-0.85-0.74-1.39-0.95c-0.54-0.21-1.12-0.31-1.75-0.31c-0.63,0-1.21,0.1-1.73,0.31c-0.52,0.21-0.98,0.52-1.36,0.95
					c-0.39,0.42-0.69,0.96-0.9,1.61c-0.22,0.65-0.32,1.42-0.32,2.3s0.11,1.65,0.32,2.3c0.22,0.65,0.52,1.19,0.9,1.61
					c0.39,0.42,0.84,0.74,1.36,0.95C258.25,112.06,258.82,112.16,259.45,112.16z"/>
				<path class="st21" d="M273.62,103.13c-0.82,0.42-1.43,1.08-1.82,1.96V114h-2.38V99.98h2.11l0.22,3.05h0.05
					c0.4-0.83,0.97-1.55,1.71-2.17c0.75-0.62,1.7-1,2.85-1.15v2.65C275.35,102.45,274.43,102.71,273.62,103.13z"/>
				<path class="st21" d="M290.31,112.82c-0.2,0.14-0.45,0.29-0.74,0.46c-0.3,0.16-0.65,0.32-1.07,0.47
					c-0.41,0.15-0.89,0.28-1.42,0.38c-0.53,0.1-1.12,0.15-1.77,0.15c-2.36,0-4.15-0.64-5.37-1.92c-1.22-1.28-1.84-3.07-1.84-5.37
					c0-1.13,0.17-2.15,0.5-3.05c0.33-0.9,0.8-1.66,1.39-2.28c0.59-0.62,1.3-1.1,2.12-1.43c0.82-0.33,1.71-0.5,2.66-0.5
					c0.99,0,1.88,0.17,2.67,0.51c0.79,0.34,1.44,0.85,1.96,1.52c0.51,0.67,0.86,1.5,1.05,2.48c0.19,0.98,0.18,2.13-0.01,3.43h-9.88
					c0.09,1.51,0.55,2.64,1.38,3.39c0.83,0.75,2,1.12,3.51,1.12c0.99,0,1.83-0.16,2.51-0.47c0.68-0.31,1.26-0.63,1.73-0.96
					L290.31,112.82z M284.73,101.82c-1.04,0-1.94,0.31-2.67,0.94c-0.74,0.63-1.21,1.58-1.4,2.86h7.53c0.04-0.65-0.03-1.21-0.19-1.69
					c-0.16-0.48-0.4-0.87-0.7-1.19c-0.31-0.31-0.68-0.55-1.12-0.7C285.73,101.9,285.25,101.82,284.73,101.82z"/>
			</g>
		</g>
	</g>
</g>
<g class="st1">
	<g class="st2">
		<g>
			
				<linearGradient id="SVGID_17_" gradientUnits="userSpaceOnUse" x1="101.1842" y1="125.1175" x2="69.2122" y2="93.1454" gradientTransform="matrix(1 0 0 -1 0 198)">
				<stop  offset="0" style="stop-color:#5A9EFB"/>
				<stop  offset="6.574450e-03" style="stop-color:#5A9FFB"/>
				<stop  offset="0.2601" style="stop-color:#6BBCFC"/>
				<stop  offset="0.5122" style="stop-color:#76D0FC"/>
				<stop  offset="0.7604" style="stop-color:#7DDDFD"/>
				<stop  offset="1" style="stop-color:#80E1FD"/>
			</linearGradient>
			<path class="st22" d="M79.53,70.65c-0.55,0.59-0.88,1.5-0.88,2.68v42.13c0,1.18,0.33,2.09,0.88,2.68l0.14,0.14l23.6-23.6v-0.28
				v-0.28l-23.6-23.6L79.53,70.65z"/>
			
				<linearGradient id="SVGID_18_" gradientUnits="userSpaceOnUse" x1="124.111" y1="103.6057" x2="78.0144" y2="103.6057" gradientTransform="matrix(1 0 0 -1 0 198)">
				<stop  offset="0" style="stop-color:#F5DE34"/>
				<stop  offset="0.4087" style="stop-color:#EDBB2C"/>
				<stop  offset="0.7754" style="stop-color:#E8A326"/>
				<stop  offset="1" style="stop-color:#E79A24"/>
			</linearGradient>
			<path class="st23" d="M111.14,102.54l-7.87-7.87v-0.28v-0.28l7.87-7.87l0.18,0.1l9.32,5.3c2.66,1.51,2.66,3.99,0,5.5l-9.32,5.3
				L111.14,102.54z"/>
			
				<linearGradient id="SVGID_19_" gradientUnits="userSpaceOnUse" x1="106.9516" y1="99.2339" x2="63.5948" y2="55.8772" gradientTransform="matrix(1 0 0 -1 0 198)">
				<stop  offset="0" style="stop-color:#DC3D45"/>
				<stop  offset="1" style="stop-color:#A61860"/>
			</linearGradient>
			<path class="st24" d="M103.28,94.39l-23.74,23.74c0.88,0.93,2.33,1.04,3.96,0.12l27.83-15.81L103.28,94.39z"/>
			
				<linearGradient id="SVGID_20_" gradientUnits="userSpaceOnUse" x1="73.556" y1="141.3747" x2="92.9165" y2="122.0142" gradientTransform="matrix(1 0 0 -1 0 198)">
				<stop  offset="0" style="stop-color:#629E73"/>
				<stop  offset="0.0685" style="stop-color:#64A473"/>
				<stop  offset="0.4762" style="stop-color:#76CD79"/>
				<stop  offset="0.8009" style="stop-color:#81E57C"/>
				<stop  offset="1" style="stop-color:#86EF7D"/>
			</linearGradient>
			<path class="st25" d="M111.32,86.35L83.49,70.53c-1.63-0.93-3.08-0.81-3.96,0.12l23.74,23.74L111.32,86.35z"/>
			<g>
				<path class="st26" d="M111.15,102.26l-27.65,15.71c-1.55,0.88-2.93,0.82-3.82,0.02l0,0l-0.14,0.14l0,0l0.14,0.14l0,0
					c0.89,0.8,2.27,0.86,3.82-0.02l27.83-15.81L111.15,102.26z"/>
				<path class="st27" d="M79.53,117.86c-0.55-0.59-0.88-1.5-0.88-2.68v0.28c0,1.18,0.33,2.09,0.88,2.68l0.14-0.14L79.53,117.86z"/>
			</g>
			<path class="st27" d="M120.64,96.87l-9.5,5.4l0.18,0.18l9.32-5.3c1.33-0.76,2-1.75,2-2.75l0,0
				C122.53,95.3,121.85,96.18,120.64,96.87z"/>
			<path class="st28" d="M83.49,70.81l37.15,21.11c1.21,0.69,1.88,1.57,2,2.47l0,0c0-1-0.67-1.99-2-2.75L83.49,70.53
				c-2.66-1.51-4.84-0.26-4.84,2.79v0.28C78.65,70.56,80.83,69.3,83.49,70.81z"/>
		</g>
		<g>
			<path class="st21" d="M158.37,84.98c-0.15,0.42-0.37,0.79-0.68,1.1c-0.3,0.31-0.69,0.56-1.15,0.73c-0.46,0.18-1,0.26-1.63,0.26
				c-0.61,0-1.16-0.11-1.67-0.32c-0.5-0.21-0.94-0.51-1.3-0.89c-0.36-0.38-0.64-0.85-0.84-1.39c-0.2-0.54-0.3-1.15-0.3-1.81
				c0-0.66,0.1-1.27,0.29-1.81c0.19-0.54,0.47-1.01,0.85-1.39c0.37-0.38,0.83-0.68,1.39-0.89c0.55-0.21,1.19-0.32,1.91-0.32
				c0.62,0,1.17,0.07,1.63,0.22c0.46,0.14,0.84,0.31,1.15,0.49l-0.18,1.1c-0.36-0.26-0.76-0.45-1.21-0.59
				c-0.44-0.14-0.92-0.2-1.42-0.2c-0.54,0-1.01,0.08-1.41,0.23c-0.4,0.15-0.72,0.37-0.98,0.67c-0.26,0.29-0.45,0.65-0.58,1.07
				c-0.13,0.42-0.19,0.9-0.19,1.43c0,1.07,0.25,1.91,0.76,2.5c0.51,0.6,1.21,0.89,2.12,0.89c0.45,0,0.83-0.06,1.15-0.17
				c0.32-0.12,0.58-0.28,0.78-0.48c0.2-0.2,0.35-0.45,0.44-0.73c0.09-0.28,0.14-0.59,0.14-0.93v-0.24h-2.77v-1.02h3.94v1.1
				C158.59,84.1,158.51,84.56,158.37,84.98z"/>
			<path class="st21" d="M160.3,78.37h4.96v1.02h-3.82V82h3.31v1.02h-3.31v2.93h3.88v1.02h-5.02V78.37z"/>
			<path class="st21" d="M170.19,79.39v7.57h-1.15v-7.57h-2.52v-1.02h6.2v1.02H170.19z"/>
			<path class="st21" d="M177.7,78.37v8.59h-1.14v-8.59H177.7z"/>
			<path class="st21" d="M182.85,79.39v7.57h-1.15v-7.57h-2.52v-1.02h6.2v1.02H182.85z"/>
			<path class="st21" d="M192.84,87.08c-0.58,0-1.12-0.1-1.62-0.29c-0.5-0.2-0.94-0.48-1.31-0.86c-0.37-0.38-0.66-0.84-0.87-1.39
				c-0.21-0.55-0.32-1.19-0.32-1.91c0-0.72,0.11-1.35,0.32-1.9c0.21-0.55,0.5-1,0.87-1.37c0.37-0.36,0.8-0.64,1.31-0.83
				c0.5-0.19,1.04-0.28,1.62-0.28c0.59,0,1.14,0.09,1.64,0.28c0.5,0.19,0.94,0.47,1.3,0.83c0.36,0.37,0.65,0.83,0.86,1.37
				c0.21,0.55,0.31,1.18,0.31,1.9c0,0.71-0.1,1.34-0.31,1.9c-0.21,0.55-0.49,1.02-0.86,1.39c-0.36,0.38-0.8,0.66-1.3,0.86
				C193.98,86.99,193.43,87.08,192.84,87.08z M192.84,86.06c0.42,0,0.8-0.06,1.15-0.19c0.35-0.12,0.66-0.32,0.92-0.59
				c0.26-0.27,0.46-0.62,0.61-1.05c0.15-0.43,0.22-0.96,0.22-1.57c0-0.62-0.07-1.14-0.22-1.57c-0.15-0.43-0.35-0.78-0.61-1.05
				c-0.26-0.27-0.57-0.46-0.92-0.59c-0.35-0.12-0.74-0.19-1.15-0.19c-0.41,0-0.79,0.06-1.15,0.19c-0.36,0.12-0.66,0.32-0.92,0.59
				c-0.26,0.27-0.46,0.62-0.61,1.05c-0.15,0.43-0.22,0.96-0.22,1.57c0,0.62,0.07,1.14,0.22,1.57c0.15,0.43,0.35,0.78,0.61,1.05
				c0.26,0.27,0.57,0.46,0.92,0.59C192.04,86,192.43,86.06,192.84,86.06z"/>
			<path class="st21" d="M199.65,79.75v7.21h-1.07v-8.59h1.52l4.32,7.21v-7.21h1.08v8.59h-1.54L199.65,79.75z"/>
			<path class="st21" d="M168.51,107.51c-0.33,0.95-0.84,1.78-1.53,2.48c-0.68,0.7-1.54,1.25-2.58,1.65
				c-1.04,0.4-2.25,0.59-3.66,0.59c-1.37,0-2.62-0.24-3.75-0.72c-1.13-0.48-2.11-1.15-2.92-2.01c-0.81-0.86-1.44-1.91-1.89-3.13
				c-0.45-1.22-0.68-2.58-0.68-4.08c0-1.49,0.22-2.85,0.65-4.08c0.43-1.22,1.07-2.27,1.9-3.13c0.84-0.86,1.88-1.53,3.12-2.01
				c1.24-0.48,2.67-0.72,4.29-0.72c1.4,0,2.62,0.16,3.66,0.49c1.04,0.32,1.89,0.69,2.58,1.11l-0.4,2.48
				c-0.81-0.58-1.71-1.02-2.71-1.32c-1-0.31-2.07-0.46-3.2-0.46c-1.22,0-2.28,0.17-3.17,0.51c-0.89,0.34-1.63,0.84-2.21,1.5
				c-0.59,0.66-1.02,1.46-1.31,2.4c-0.29,0.95-0.43,2.02-0.43,3.23c0,2.41,0.57,4.29,1.71,5.63c1.14,1.34,2.73,2.01,4.77,2.01
				c1.01,0,1.87-0.13,2.59-0.39c0.72-0.26,1.3-0.62,1.75-1.08c0.45-0.46,0.78-1.01,0.99-1.65c0.21-0.64,0.31-1.34,0.31-2.09v-0.54
				h-6.24v-2.29h8.86v2.48C169.01,105.51,168.85,106.55,168.51,107.51z"/>
			<path class="st21" d="M178.57,112.23c-0.95,0-1.85-0.16-2.67-0.49c-0.83-0.32-1.54-0.8-2.15-1.42c-0.6-0.62-1.08-1.38-1.42-2.28
				c-0.34-0.9-0.51-1.93-0.51-3.1c0-1.15,0.17-2.18,0.51-3.09c0.34-0.91,0.81-1.67,1.42-2.28c0.6-0.61,1.32-1.08,2.15-1.4
				c0.83-0.32,1.72-0.49,2.67-0.49c0.97,0,1.87,0.16,2.7,0.49c0.83,0.32,1.54,0.79,2.15,1.4c0.6,0.61,1.08,1.37,1.43,2.28
				c0.35,0.91,0.53,1.94,0.53,3.09c0,1.17-0.17,2.21-0.53,3.1c-0.35,0.9-0.83,1.66-1.43,2.28c-0.6,0.62-1.32,1.09-2.15,1.42
				C180.44,112.07,179.54,112.23,178.57,112.23z M178.57,110.13c0.63,0,1.21-0.1,1.75-0.31c0.54-0.21,1-0.52,1.39-0.95
				c0.39-0.42,0.69-0.96,0.92-1.61c0.22-0.65,0.34-1.42,0.34-2.3s-0.11-1.65-0.34-2.3c-0.23-0.65-0.53-1.19-0.92-1.61
				c-0.39-0.42-0.85-0.74-1.39-0.95c-0.54-0.21-1.12-0.31-1.75-0.31s-1.21,0.1-1.73,0.31c-0.52,0.21-0.98,0.52-1.36,0.95
				c-0.39,0.42-0.69,0.96-0.9,1.61c-0.22,0.65-0.32,1.42-0.32,2.3s0.11,1.65,0.32,2.3c0.22,0.65,0.52,1.19,0.9,1.61
				c0.39,0.42,0.84,0.74,1.36,0.95C177.36,110.02,177.94,110.13,178.57,110.13z"/>
			<path class="st21" d="M194.28,112.23c-0.95,0-1.85-0.16-2.67-0.49c-0.83-0.32-1.54-0.8-2.15-1.42c-0.6-0.62-1.08-1.38-1.42-2.28
				c-0.34-0.9-0.51-1.93-0.51-3.1c0-1.15,0.17-2.18,0.51-3.09c0.34-0.91,0.81-1.67,1.42-2.28c0.6-0.61,1.32-1.08,2.15-1.4
				c0.83-0.32,1.72-0.49,2.67-0.49c0.97,0,1.87,0.16,2.7,0.49c0.83,0.32,1.54,0.79,2.15,1.4c0.6,0.61,1.08,1.37,1.43,2.28
				c0.35,0.91,0.53,1.94,0.53,3.09c0,1.17-0.17,2.21-0.53,3.1c-0.35,0.9-0.83,1.66-1.43,2.28c-0.6,0.62-1.32,1.09-2.15,1.42
				C196.16,112.07,195.26,112.23,194.28,112.23z M194.28,110.13c0.63,0,1.21-0.1,1.75-0.31c0.54-0.21,1-0.52,1.39-0.95
				c0.39-0.42,0.69-0.96,0.92-1.61c0.22-0.65,0.34-1.42,0.34-2.3s-0.11-1.65-0.34-2.3c-0.23-0.65-0.53-1.19-0.92-1.61
				c-0.39-0.42-0.85-0.74-1.39-0.95c-0.54-0.21-1.12-0.31-1.75-0.31s-1.21,0.1-1.73,0.31c-0.52,0.21-0.98,0.52-1.36,0.95
				c-0.39,0.42-0.69,0.96-0.9,1.61c-0.22,0.65-0.32,1.42-0.32,2.3s0.11,1.65,0.32,2.3c0.22,0.65,0.52,1.19,0.9,1.61
				c0.39,0.42,0.84,0.74,1.36,0.95C193.08,110.02,193.65,110.13,194.28,110.13z"/>
			<path class="st21" d="M209.16,116.8c-1.31,0-2.39-0.11-3.21-0.32c-0.83-0.21-1.44-0.44-1.84-0.67l0.49-2.17
				c0.45,0.23,1.04,0.47,1.75,0.7c0.72,0.23,1.67,0.35,2.83,0.35c1.75,0,2.98-0.35,3.71-1.06c0.73-0.71,1.09-1.69,1.09-2.96v-2.03
				c-0.41,0.83-1,1.49-1.74,2c-0.75,0.5-1.67,0.76-2.77,0.76c-0.83,0-1.62-0.14-2.36-0.43c-0.75-0.29-1.4-0.72-1.97-1.28
				c-0.57-0.57-1.02-1.28-1.35-2.13c-0.33-0.85-0.5-1.85-0.5-2.98c0-1.15,0.17-2.16,0.5-3.01c0.33-0.85,0.78-1.57,1.35-2.15
				c0.57-0.58,1.23-1.01,1.98-1.3c0.76-0.29,1.56-0.43,2.4-0.43c1.12,0,2.06,0.25,2.82,0.76c0.76,0.5,1.36,1.19,1.8,2.05l0.03-0.3
				c0-0.32,0.02-0.72,0.05-1.17c0.04-0.46,0.08-0.81,0.13-1.07h2.13c-0.04,0.25-0.07,0.61-0.09,1.08c-0.03,0.47-0.04,0.86-0.04,1.16
				v10.45c0,0.9-0.13,1.73-0.41,2.48c-0.27,0.76-0.7,1.4-1.28,1.94c-0.58,0.54-1.33,0.96-2.24,1.27
				C211.53,116.64,210.44,116.8,209.16,116.8z M209.94,109.29c0.58,0,1.11-0.09,1.61-0.28c0.49-0.19,0.93-0.48,1.3-0.88
				c0.37-0.4,0.66-0.89,0.86-1.48c0.21-0.59,0.31-1.28,0.31-2.07c0-0.81-0.1-1.52-0.31-2.11c-0.21-0.6-0.5-1.09-0.86-1.49
				c-0.37-0.4-0.8-0.69-1.3-0.89c-0.5-0.2-1.04-0.3-1.63-0.3c-0.59,0-1.15,0.1-1.66,0.3c-0.51,0.2-0.96,0.5-1.34,0.89
				c-0.38,0.4-0.67,0.9-0.89,1.5c-0.22,0.6-0.32,1.3-0.32,2.1c0,0.79,0.11,1.48,0.32,2.07c0.22,0.59,0.51,1.07,0.89,1.46
				c0.38,0.39,0.82,0.68,1.34,0.88C208.77,109.19,209.33,109.29,209.94,109.29z"/>
			<path class="st21" d="M222.93,92.63v19.33h-2.38V92.63H222.93z"/>
			<path class="st21" d="M238.27,110.79c-0.2,0.14-0.45,0.29-0.74,0.46c-0.3,0.16-0.65,0.32-1.07,0.47
				c-0.41,0.15-0.89,0.28-1.42,0.38c-0.53,0.1-1.12,0.15-1.77,0.15c-2.36,0-4.15-0.64-5.37-1.92c-1.22-1.28-1.84-3.07-1.84-5.37
				c0-1.13,0.17-2.15,0.5-3.05c0.33-0.9,0.8-1.66,1.39-2.28c0.59-0.62,1.3-1.1,2.12-1.43c0.82-0.33,1.71-0.5,2.66-0.5
				c0.99,0,1.88,0.17,2.67,0.51c0.79,0.34,1.44,0.85,1.96,1.52c0.51,0.67,0.86,1.5,1.05,2.48c0.19,0.98,0.18,2.13-0.01,3.43h-9.88
				c0.09,1.51,0.55,2.64,1.38,3.39c0.83,0.75,2,1.12,3.51,1.12c0.99,0,1.83-0.16,2.51-0.47c0.68-0.31,1.26-0.63,1.73-0.96
				L238.27,110.79z M232.68,99.79c-1.04,0-1.94,0.31-2.67,0.94c-0.74,0.63-1.21,1.58-1.4,2.86h7.53c0.04-0.65-0.03-1.21-0.19-1.69
				c-0.16-0.48-0.4-0.87-0.7-1.19c-0.31-0.31-0.68-0.55-1.12-0.7C233.68,99.86,233.2,99.79,232.68,99.79z"/>
			<path class="st21" d="M249.9,104.43v7.53h-2.56V92.63h5.64c2.2,0,3.9,0.45,5.12,1.36c1.22,0.91,1.82,2.32,1.82,4.23
				c0,1.1-0.18,2.04-0.53,2.82c-0.35,0.78-0.84,1.43-1.47,1.93c-0.63,0.5-1.39,0.87-2.27,1.11s-1.84,0.35-2.89,0.35H249.9z
				 M249.9,94.93v7.21h2.86c0.68,0,1.3-0.07,1.86-0.22c0.56-0.14,1.04-0.37,1.44-0.68c0.41-0.31,0.72-0.71,0.94-1.2
				c0.23-0.5,0.34-1.09,0.34-1.8c0-1.17-0.38-2.02-1.13-2.54c-0.76-0.52-1.84-0.78-3.24-0.78H249.9z"/>
			<path class="st21" d="M265.59,92.63v19.33h-2.38V92.63H265.59z"/>
			<path class="st21" d="M277.77,109.64c-0.2,0.31-0.44,0.62-0.72,0.93c-0.28,0.32-0.61,0.59-1,0.84c-0.39,0.24-0.83,0.44-1.34,0.59
				c-0.5,0.15-1.06,0.23-1.67,0.23c-1.26,0-2.28-0.36-3.05-1.07c-0.77-0.71-1.16-1.73-1.16-3.06c0-3.04,2.25-4.56,6.75-4.56h2.05
				v-1.05c0-0.97-0.26-1.66-0.77-2.08c-0.51-0.41-1.36-0.62-2.55-0.62c-0.92,0-1.73,0.12-2.44,0.35c-0.71,0.23-1.33,0.5-1.85,0.81
				l-0.57-1.97c0.49-0.31,1.16-0.6,2.03-0.88c0.86-0.28,1.86-0.42,3-0.42c1.8,0,3.17,0.37,4.12,1.11c0.95,0.74,1.42,1.87,1.42,3.4
				v7.51c0,0.16,0,0.35,0.01,0.55c0.01,0.21,0.02,0.42,0.03,0.63c0.01,0.22,0.02,0.42,0.04,0.61c0.02,0.19,0.04,0.35,0.05,0.47
				h-2.19c-0.04-0.25-0.08-0.61-0.12-1.07c-0.04-0.46-0.07-0.86-0.07-1.2V109.64z M273.56,110.13c0.5,0,0.97-0.07,1.39-0.22
				c0.42-0.14,0.8-0.33,1.13-0.57c0.33-0.23,0.63-0.49,0.89-0.76c0.26-0.27,0.48-0.54,0.66-0.81v-2.34h-1.84
				c-1.69,0-2.88,0.22-3.56,0.67c-0.68,0.44-1.03,1.07-1.03,1.89c0,0.63,0.19,1.15,0.57,1.55
				C272.15,109.93,272.75,110.13,273.56,110.13z"/>
			<path class="st21" d="M284.92,117.01c-0.31,0-0.59-0.02-0.85-0.05c-0.26-0.04-0.47-0.09-0.63-0.16l0.3-2.05
				c0.09,0.04,0.23,0.07,0.41,0.11c0.18,0.04,0.42,0.05,0.73,0.05c0.67,0,1.21-0.16,1.65-0.48c0.43-0.32,0.84-0.83,1.21-1.52
				l-5.4-14.96h2.56l4.13,11.88l4.21-11.88h2.32l-4.94,13.85c-0.61,1.69-1.35,2.98-2.23,3.87
				C287.52,116.57,286.36,117.01,284.92,117.01z"/>
		</g>
	</g>
</g>
</svg>
