<?xml version="1.0" encoding="utf-8"?>
<!-- Generator: Adobe Illustrator 23.0.1, SVG Export Plug-In . SVG Version: 6.00 Build 0)  -->
<svg version="1.1" id="Layer_1" xmlns="http://www.w3.org/2000/svg" xmlns:xlink="http://www.w3.org/1999/xlink" x="0px" y="0px"
	 viewBox="0 0 400 400" style="enable-background:new 0 0 400 400;" xml:space="preserve">
<style type="text/css">
	.st0{fill:#8B644D;}
</style>
<path class="st0" d="M202.9,3.7C95.2,2.3,6.8,87.6,3,194.1v0c0,1.3,1,2.4,2.3,2.4h0.1h0.2c1.2,0,2.2-0.9,2.2-2.1v0
	C11.4,91.5,95.8,9,199.3,8.5c106.2-0.5,193.3,85.9,193.6,192.1c0.3,106.4-86.2,193.1-192.6,193.1c-104.2,0-189.2-83.1-192.5-186.5
	c0-1.4-1.2-2.5-2.5-2.5l0,0c-1.3,0-2.3,1.1-2.3,2.4c3.2,106.1,90.5,191.4,197.3,191.4c109,0,197.7-88.9,197.4-198
	C397.4,93.1,310.3,5.1,202.9,3.7z"/>
<path class="st0" d="M62.6,59.7c-77.1,75.2-79.4,198-6.7,275.9l0,0c0.9,0.9,2.4,1,3.3,0.1l0.1-0.1l0.1-0.1c0.8-0.8,0.9-2.2,0.1-3.1
	l0,0c-70.1-75.2-68.8-193.3,4-266.8c74.7-75.4,197.5-75.9,272.7-1c75.4,75.1,75.6,197.5,0.3,272.7c-73.6,73.6-192.6,75.1-268,4.2
	c-1-0.9-2.6-0.9-3.5,0l0,0c-0.9,0.9-0.9,2.4,0,3.3c77.3,72.8,199.3,71.4,274.9-4.2c77.1-77.1,77-202.6-0.4-279.6
	C263.3-14.6,139.5-15.3,62.6,59.7z"/>
</svg>
